#!OML:ASF X:\für Bonn\!DataBase\2005_08_11_Bastian_Final\c3d\Bastian.ASF
:FULLY-SPECIFIED
:DEGREES
112
root -22.402 17.6551 -0.486023 39.5239 -81.4516 -48.0688
lowerback 8.39604 4.70022 6.50254
upperback 5.66566 6.46932 -4.63509
thorax 2.55929 3.4913 -8.8873
lowerneck -7.2488 -12.2687 -2.17798
upperneck -13.5622 -15.8774 13.6607
head -1.78384 -8.38703 4.61576
rclavicle 3.02153e-014 3.81667e-014
rhumerus 56.9064 1.38553 -9.40074
rradius 21.8956
rwrist -15.941
rhand 7.07905 -10.9799
rfingers 7.12502
rthumb 32.3509 -38.1148
lclavicle 3.02153e-014 3.81667e-014
lhumerus -25.4323 -15.4143 82.6613
lradius 16.5857
lwrist 14.6972
lhand -9.8416 -3.76501
lfingers 7.12502
lthumb 16.1362 25.5833
rfemur 0.289218 0.964631 26.4071
rtibia 27.4904
rfoot -10.8661 -17.5706
rtoes -5.97491
lfemur 1.20153 2.08671 -12.5706
ltibia 22.741
lfoot -8.62747 -6.92247
ltoes -19.9012
113
root -22.3993 17.6553 -0.48457 39.0725 -81.4135 -47.6215
lowerback 8.42588 4.73641 6.51563
upperback 5.67404 6.51907 -4.65401
thorax 2.56651 3.51784 -8.91886
lowerneck -7.27268 -12.2961 -2.20598
upperneck -13.5283 -15.9121 13.7053
head -1.75895 -8.40195 4.62882
rclavicle 1.47101e-014 -3.02153e-014
rhumerus 56.9746 1.35873 -9.67626
rradius 21.4251
rwrist -16.0252
rhand 7.15507 -11.0013
rfingers 7.12502
rthumb 32.4233 -38.1214
lclavicle 1.47101e-014 -3.02153e-014
lhumerus -25.4567 -15.3764 82.6576
lradius 16.6881
lwrist 14.8785
lhand -9.91523 -3.77944
lfingers 7.12502
lthumb 16.0653 25.5746
rfemur 0.289079 0.989242 26.3897
rtibia 27.5022
rfoot -10.8799 -17.6577
rtoes -5.94294
lfemur 1.19216 2.0801 -12.5981
ltibia 22.7278
lfoot -8.59875 -6.98272
ltoes -19.8745
114
root -22.396 17.6552 -0.482921 38.7621 -81.3742 -47.3205
lowerback 8.45727 4.77285 6.54288
upperback 5.69286 6.56986 -4.66201
thorax 2.58468 3.54586 -8.94631
lowerneck -7.33395 -12.3209 -2.21881
upperneck -13.4732 -15.947 13.719
head -1.72459 -8.41502 4.62454
rclavicle -5.36719e-014 3.49861e-014
rhumerus 56.9885 1.31159 -9.91949
rradius 21.0729
rwrist -16.2102
rhand 7.12742 -11.0705
rfingers 7.12502
rthumb 32.397 -38.1961
lclavicle -5.36719e-014 3.49861e-014
lhumerus -25.4516 -15.4351 82.6905
lradius 16.7661
lwrist 15.1719
lhand -10.0045 -3.79958
lfingers 7.12502
lthumb 15.9793 25.5613
rfemur 0.291939 0.955859 26.3735
rtibia 27.5086
rfoot -10.8843 -17.6776
rtoes -5.93448
lfemur 1.18341 2.09226 -12.6057
ltibia 22.7197
lfoot -8.57039 -7.04951
ltoes -19.8546
115
root -22.3931 17.6554 -0.480808 38.2684 -81.3415 -46.8386
lowerback 8.50611 4.80267 6.55741
upperback 5.69135 6.61222 -4.6835
thorax 2.57002 3.56762 -8.98381
lowerneck -7.3438 -12.3463 -2.24422
upperneck -13.4063 -15.9808 13.7478
head -1.69266 -8.42786 4.63086
rclavicle 4.77083e-014 -2.70347e-014
rhumerus 56.9587 1.25292 -10.2191
rradius 20.7739
rwrist -16.3857
rhand 7.15562 -11.0454
rfingers 7.12502
rthumb 32.4238 -38.1654
lclavicle 4.77083e-014 -2.70347e-014
lhumerus -25.4699 -15.4329 82.7083
lradius 16.8176
lwrist 15.3517
lhand -10.0943 -3.81431
lfingers 7.12502
lthumb 15.8928 25.5535
rfemur 0.301647 0.894755 26.3283
rtibia 27.5159
rfoot -10.8798 -17.6909
rtoes -6.00354
lfemur 1.17796 2.16012 -12.6328
ltibia 22.7136
lfoot -8.55007 -7.1567
ltoes -19.9919
116
root -22.39 17.6556 -0.478615 38.0214 -81.2997 -46.5957
lowerback 8.53464 4.83788 6.60242
upperback 5.69956 6.663 -4.69835
thorax 2.58194 3.59606 -9.02912
lowerneck -7.42947 -12.361 -2.20754
upperneck -13.2854 -16.0103 13.7097
head -1.64139 -8.43539 4.5953
rclavicle 2.46493e-014 2.70347e-014
rhumerus 56.8726 1.15114 -10.5252
rradius 20.5627
rwrist -16.6474
rhand 7.17004 -11.0032
rfingers 7.12502
rthumb 32.4375 -38.1204
lclavicle 2.46493e-014 2.70347e-014
lhumerus -25.4541 -15.4663 82.7191
lradius 16.8401
lwrist 15.5682
lhand -10.1608 -3.86671
lfingers 7.12502
lthumb 15.8288 25.5062
rfemur 0.296553 0.863014 26.3173
rtibia 27.5204
rfoot -10.8684 -17.7055
rtoes -5.93632
lfemur 1.16128 2.13872 -12.643
ltibia 22.7093
lfoot -8.52703 -7.18447
ltoes -20.0455
117
root -22.3873 17.6558 -0.476628 37.782 -81.2656 -46.3548
lowerback 8.56321 4.87109 6.62729
upperback 5.689 6.71057 -4.70465
thorax 2.56922 3.62047 -9.05457
lowerneck -7.45152 -12.3735 -2.2073
upperneck -13.1647 -16.0325 13.692
head -1.59673 -8.4395 4.5781
rclavicle -5.92378e-014 1.74931e-014
rhumerus 56.7852 1.03176 -10.9151
rradius 20.4038
rwrist -16.823
rhand 7.20939 -10.9816
rfingers 7.12502
rthumb 32.475 -38.0911
lclavicle -5.92378e-014 1.74931e-014
lhumerus -25.46 -15.4571 82.7456
lradius 16.8614
lwrist 15.763
lhand -10.2303 -3.88618
lfingers 7.12502
lthumb 15.7619 25.492
rfemur 0.290347 0.887635 26.3153
rtibia 27.5261
rfoot -10.8743 -17.7711
rtoes -5.9025
lfemur 1.14734 2.13425 -12.6535
ltibia 22.7032
lfoot -8.50766 -7.22472
ltoes -20.0248
118
root -22.3835 17.6559 -0.474482 37.4137 -81.2389 -46.0076
lowerback 8.6185 4.90071 6.64877
upperback 5.69731 6.75299 -4.72094
thorax 2.56197 3.64287 -9.09066
lowerneck -7.53216 -12.388 -2.17801
upperneck -13.0136 -16.0629 13.6505
head -1.53598 -8.44575 4.54115
rclavicle 1.02175e-013 -3.33958e-014
rhumerus 56.6771 0.879028 -11.2848
rradius 20.2922
rwrist -17.0725
rhand 7.25496 -11.0095
rfingers 7.12502
rthumb 32.5183 -38.1101
lclavicle 1.02175e-013 -3.33958e-014
lhumerus -25.4242 -15.4794 82.7735
lradius 16.842
lwrist 15.9892
lhand -10.3356 -3.93275
lfingers 7.12502
lthumb 15.6605 25.4534
rfemur 0.306747 0.867833 26.2836
rtibia 27.5241
rfoot -10.8717 -17.7987
rtoes -5.87873
lfemur 1.14603 2.12321 -12.6851
ltibia 22.7034
lfoot -8.47264 -7.26136
ltoes -19.9568
119
root -22.3807 17.6564 -0.471737 37.3365 -81.2042 -45.9371
lowerback 8.65657 4.92635 6.69621
upperback 5.68391 6.79269 -4.71848
thorax 2.54127 3.66352 -9.1205
lowerneck -7.58895 -12.3886 -2.18262
upperneck -12.8296 -16.0733 13.6087
head -1.46706 -8.43951 4.51055
rclavicle -2.5842e-014 6.20208e-014
rhumerus 56.6027 0.764891 -11.6008
rradius 20.2113
rwrist -17.3803
rhand 7.33807 -11.0468
rfingers 7.12502
rthumb 32.5974 -38.1311
lclavicle -2.5842e-014 6.20208e-014
lhumerus -25.4209 -15.5204 82.8211
lradius 16.8125
lwrist 16.2175
lhand -10.4218 -3.9743
lfingers 7.12502
lthumb 15.5774 25.4184
rfemur 0.303569 0.801945 26.2802
rtibia 27.5249
rfoot -10.8482 -17.7746
rtoes -5.90975
lfemur 1.14099 2.16632 -12.6674
ltibia 22.6995
lfoot -8.45441 -7.3367
ltoes -19.9322
120
root -22.3778 17.6566 -0.469027 36.9989 -81.1861 -45.613
lowerback 8.70369 4.9502 6.73435
upperback 5.67752 6.82887 -4.75185
thorax 2.52635 3.68323 -9.18459
lowerneck -7.68161 -12.3908 -2.13186
upperneck -12.6085 -16.0927 13.5514
head -1.38527 -8.43739 4.46044
rclavicle 2.78299e-015 -2.22639e-014
rhumerus 56.5067 0.62108 -11.9708
rradius 20.1379
rwrist -17.6852
rhand 7.39707 -11.1665
rfingers 7.12502
rthumb 32.6536 -38.2391
lclavicle 2.78299e-015 -2.22639e-014
lhumerus -25.3689 -15.5116 82.8043
lradius 16.7571
lwrist 16.3165
lhand -10.4658 -4.00625
lfingers 7.12502
lthumb 15.535 25.3897
rfemur 0.314614 0.820919 26.2503
rtibia 27.5274
rfoot -10.8518 -17.829
rtoes -5.88803
lfemur 1.13861 2.14873 -12.7081
ltibia 22.6967
lfoot -8.43599 -7.35727
ltoes -19.9237
121
root -22.3749 17.6568 -0.466425 36.721 -81.1782 -45.3422
lowerback 8.73839 4.97663 6.76036
upperback 5.67238 6.8672 -4.77887
thorax 2.51757 3.70372 -9.23355
lowerneck -7.78841 -12.3777 -2.08115
upperneck -12.3795 -16.0921 13.5006
head -1.29966 -8.42481 4.41238
rclavicle -4.29375e-014 -1.43125e-014
rhumerus 56.4036 0.463721 -12.3119
rradius 20.1139
rwrist -18.0236
rhand 7.48509 -11.2634
rfingers 7.12502
rthumb 32.7373 -38.3187
lclavicle -4.29375e-014 -1.43125e-014
lhumerus -25.3159 -15.5294 82.8019
lradius 16.7138
lwrist 16.4066
lhand -10.4965 -4.00942
lfingers 7.12502
lthumb 15.5055 25.3888
rfemur 0.32355 0.832563 26.2165
rtibia 27.5296
rfoot -10.8633 -17.8599
rtoes -5.86202
lfemur 1.13267 2.19063 -12.738
ltibia 22.6918
lfoot -8.42962 -7.40964
ltoes -19.9481
122
root -22.3717 17.6567 -0.463572 36.5588 -81.1483 -45.1919
lowerback 8.77341 4.99853 6.82627
upperback 5.66912 6.90246 -4.80715
thorax 2.51577 3.72463 -9.3066
lowerneck -7.92888 -12.3525 -1.94517
upperneck -12.1149 -16.0851 13.3877
head -1.21037 -8.4087 4.32621
rclavicle 1.90833e-014 -3.02153e-014
rhumerus 56.2679 0.284865 -12.692
rradius 20.1669
rwrist -18.3781
rhand 7.5655 -11.463
rfingers 7.12502
rthumb 32.8138 -38.5024
lclavicle 1.90833e-014 -3.02153e-014
lhumerus -25.2387 -15.5759 82.7811
lradius 16.6551
lwrist 16.4394
lhand -10.5114 -3.96663
lfingers 7.12502
lthumb 15.4911 25.4327
rfemur 0.323208 0.779258 26.2021
rtibia 27.5333
rfoot -10.8235 -17.8495
rtoes -6.05121
lfemur 1.13383 2.1669 -12.7495
ltibia 22.6842
lfoot -8.41318 -7.41914
ltoes -19.9357
123
root -22.3693 17.6573 -0.460133 36.3749 -81.1286 -45.0269
lowerback 8.81319 5.01298 6.89924
upperback 5.66495 6.92845 -4.84423
thorax 2.51078 3.74116 -9.39374
lowerneck -8.04113 -12.3216 -1.84104
upperneck -11.859 -16.067 13.3115
head -1.12368 -8.38764 4.26114
rclavicle 2.18663e-014 9.54166e-015
rhumerus 56.1399 0.100756 -13.1058
rradius 20.2408
rwrist -18.6784
rhand 7.63278 -11.6685
rfingers 7.12502
rthumb 32.8778 -38.6944
lclavicle 2.18663e-014 9.54166e-015
lhumerus -25.1508 -15.5138 82.7054
lradius 16.6016
lwrist 16.327
lhand -10.4567 -3.93269
lfingers 7.12502
lthumb 15.5438 25.4626
rfemur 0.337253 0.786179 26.186
rtibia 27.5405
rfoot -10.8313 -17.8786
rtoes -6.02493
lfemur 1.14319 2.19933 -12.7612
ltibia 22.6745
lfoot -8.39739 -7.48155
ltoes -20.026
